<svg width="24" height="24" viewBox="0 0 24 24" fill="none" xmlns="http://www.w3.org/2000/svg">
<path d="M12.0003 17.275L7.85033 19.775C7.667 19.8916 7.47533 19.9416 7.27533 19.9249C7.07533 19.9083 6.90033 19.8416 6.75033 19.725C6.60033 19.6083 6.48366 19.4626 6.40033 19.288C6.317 19.1133 6.30033 18.9173 6.35033 18.7L7.45033 13.975L3.77533 10.8C3.60866 10.65 3.50466 10.479 3.46333 10.287C3.422 10.095 3.43433 9.90762 3.50033 9.72495C3.56633 9.54228 3.66633 9.39228 3.80033 9.27495C3.93433 9.15762 4.11766 9.08262 4.35033 9.04995L9.20033 8.62495L11.0753 4.17495C11.1587 3.97495 11.288 3.82495 11.4633 3.72495C11.6387 3.62495 11.8177 3.57495 12.0003 3.57495C12.183 3.57495 12.362 3.62495 12.5373 3.72495C12.7127 3.82495 12.842 3.97495 12.9253 4.17495L14.8003 8.62495L19.6503 9.04995C19.8837 9.08328 20.067 9.15828 20.2003 9.27495C20.3337 9.39162 20.4337 9.54162 20.5003 9.72495C20.567 9.90829 20.5797 10.096 20.5383 10.288C20.497 10.48 20.3927 10.6506 20.2253 10.8L16.5503 13.975L17.6503 18.7C17.7003 18.9166 17.6837 19.1126 17.6003 19.288C17.517 19.4633 17.4003 19.609 17.2503 19.725C17.1003 19.841 16.9253 19.9076 16.7253 19.9249C16.5253 19.9423 16.3337 19.8923 16.1503 19.775L12.0003 17.275Z" fill="#FFAB0D"/>
</svg>
